<mxfile host="www.draw.io" modified="2024-04-12T02:11:37.017Z" agent="Mozilla/5.0 (Windows NT 10.0; Win64; x64) AppleWebKit/537.36 (KHTML, like Gecko) Chrome/122.0.0.0 Safari/537.36" etag="FFUit0cWYVqltV5Qr6kH" version="24.2.3" type="device">
  <diagram name="第 1 页" id="ClW2a3AZ1jlyncczg7al">
    <mxGraphModel dx="735" dy="431" grid="1" gridSize="10" guides="1" tooltips="1" connect="1" arrows="1" fold="1" page="1" pageScale="1" pageWidth="827" pageHeight="1169" math="0" shadow="0">
      <root>
        <mxCell id="0" />
        <mxCell id="1" parent="0" />
        <mxCell id="zHCLdKrDDlEa_yOVtI9r-30" value="" style="group" vertex="1" connectable="0" parent="1">
          <mxGeometry x="120" y="160" width="240" height="204.38" as="geometry" />
        </mxCell>
        <mxCell id="zHCLdKrDDlEa_yOVtI9r-91" value="" style="rounded=1;whiteSpace=wrap;html=1;fillColor=#CC99FF;rotation=-90;strokeColor=#CC99FF;opacity=50;" vertex="1" parent="zHCLdKrDDlEa_yOVtI9r-30">
          <mxGeometry x="-209.37" y="194.38" width="438.75" height="10" as="geometry" />
        </mxCell>
        <mxCell id="zHCLdKrDDlEa_yOVtI9r-1" value="" style="endArrow=none;html=1;rounded=0;" edge="1" parent="zHCLdKrDDlEa_yOVtI9r-30">
          <mxGeometry width="50" height="50" relative="1" as="geometry">
            <mxPoint as="sourcePoint" />
            <mxPoint x="240" as="targetPoint" />
          </mxGeometry>
        </mxCell>
        <mxCell id="zHCLdKrDDlEa_yOVtI9r-2" value="" style="endArrow=none;html=1;rounded=0;" edge="1" parent="zHCLdKrDDlEa_yOVtI9r-30">
          <mxGeometry width="50" height="50" relative="1" as="geometry">
            <mxPoint y="20" as="sourcePoint" />
            <mxPoint x="240" y="20" as="targetPoint" />
          </mxGeometry>
        </mxCell>
        <mxCell id="zHCLdKrDDlEa_yOVtI9r-3" value="" style="endArrow=none;html=1;rounded=0;" edge="1" parent="zHCLdKrDDlEa_yOVtI9r-30">
          <mxGeometry width="50" height="50" relative="1" as="geometry">
            <mxPoint y="40" as="sourcePoint" />
            <mxPoint x="240" y="40" as="targetPoint" />
          </mxGeometry>
        </mxCell>
        <mxCell id="zHCLdKrDDlEa_yOVtI9r-4" value="" style="endArrow=none;html=1;rounded=0;" edge="1" parent="zHCLdKrDDlEa_yOVtI9r-30">
          <mxGeometry width="50" height="50" relative="1" as="geometry">
            <mxPoint y="80" as="sourcePoint" />
            <mxPoint x="240" y="80" as="targetPoint" />
          </mxGeometry>
        </mxCell>
        <mxCell id="zHCLdKrDDlEa_yOVtI9r-5" value="" style="endArrow=none;html=1;rounded=0;" edge="1" parent="zHCLdKrDDlEa_yOVtI9r-30">
          <mxGeometry width="50" height="50" relative="1" as="geometry">
            <mxPoint y="120" as="sourcePoint" />
            <mxPoint x="240" y="120" as="targetPoint" />
          </mxGeometry>
        </mxCell>
        <mxCell id="zHCLdKrDDlEa_yOVtI9r-6" value="" style="endArrow=none;html=1;rounded=0;" edge="1" parent="zHCLdKrDDlEa_yOVtI9r-30">
          <mxGeometry width="50" height="50" relative="1" as="geometry">
            <mxPoint y="100" as="sourcePoint" />
            <mxPoint x="240" y="100" as="targetPoint" />
          </mxGeometry>
        </mxCell>
        <mxCell id="zHCLdKrDDlEa_yOVtI9r-7" value="" style="endArrow=none;html=1;rounded=0;" edge="1" parent="zHCLdKrDDlEa_yOVtI9r-30">
          <mxGeometry width="50" height="50" relative="1" as="geometry">
            <mxPoint y="60" as="sourcePoint" />
            <mxPoint x="240" y="60" as="targetPoint" />
          </mxGeometry>
        </mxCell>
        <mxCell id="zHCLdKrDDlEa_yOVtI9r-8" value="" style="endArrow=none;html=1;rounded=0;" edge="1" parent="zHCLdKrDDlEa_yOVtI9r-30">
          <mxGeometry width="50" height="50" relative="1" as="geometry">
            <mxPoint y="120" as="sourcePoint" />
            <mxPoint as="targetPoint" />
          </mxGeometry>
        </mxCell>
        <mxCell id="zHCLdKrDDlEa_yOVtI9r-9" value="" style="endArrow=none;html=1;rounded=0;" edge="1" parent="zHCLdKrDDlEa_yOVtI9r-30">
          <mxGeometry width="50" height="50" relative="1" as="geometry">
            <mxPoint x="140" y="120" as="sourcePoint" />
            <mxPoint x="140" as="targetPoint" />
          </mxGeometry>
        </mxCell>
        <mxCell id="zHCLdKrDDlEa_yOVtI9r-10" value="" style="endArrow=none;html=1;rounded=0;" edge="1" parent="zHCLdKrDDlEa_yOVtI9r-30">
          <mxGeometry width="50" height="50" relative="1" as="geometry">
            <mxPoint x="160" y="120" as="sourcePoint" />
            <mxPoint x="160" as="targetPoint" />
          </mxGeometry>
        </mxCell>
        <mxCell id="zHCLdKrDDlEa_yOVtI9r-11" value="" style="endArrow=none;html=1;rounded=0;" edge="1" parent="zHCLdKrDDlEa_yOVtI9r-30">
          <mxGeometry width="50" height="50" relative="1" as="geometry">
            <mxPoint x="180" y="120" as="sourcePoint" />
            <mxPoint x="180" as="targetPoint" />
          </mxGeometry>
        </mxCell>
        <mxCell id="zHCLdKrDDlEa_yOVtI9r-12" value="" style="endArrow=none;html=1;rounded=0;" edge="1" parent="zHCLdKrDDlEa_yOVtI9r-30">
          <mxGeometry width="50" height="50" relative="1" as="geometry">
            <mxPoint x="200" y="120" as="sourcePoint" />
            <mxPoint x="200" as="targetPoint" />
          </mxGeometry>
        </mxCell>
        <mxCell id="zHCLdKrDDlEa_yOVtI9r-13" value="" style="endArrow=none;html=1;rounded=0;" edge="1" parent="zHCLdKrDDlEa_yOVtI9r-30">
          <mxGeometry width="50" height="50" relative="1" as="geometry">
            <mxPoint x="220" y="120" as="sourcePoint" />
            <mxPoint x="220" as="targetPoint" />
          </mxGeometry>
        </mxCell>
        <mxCell id="zHCLdKrDDlEa_yOVtI9r-14" value="" style="endArrow=none;html=1;rounded=0;" edge="1" parent="zHCLdKrDDlEa_yOVtI9r-30">
          <mxGeometry width="50" height="50" relative="1" as="geometry">
            <mxPoint x="240" y="120" as="sourcePoint" />
            <mxPoint x="240" as="targetPoint" />
          </mxGeometry>
        </mxCell>
        <mxCell id="zHCLdKrDDlEa_yOVtI9r-18" value="" style="endArrow=none;html=1;rounded=0;" edge="1" parent="zHCLdKrDDlEa_yOVtI9r-30">
          <mxGeometry width="50" height="50" relative="1" as="geometry">
            <mxPoint x="120" y="120" as="sourcePoint" />
            <mxPoint x="120" as="targetPoint" />
          </mxGeometry>
        </mxCell>
        <mxCell id="zHCLdKrDDlEa_yOVtI9r-19" value="" style="endArrow=none;html=1;rounded=0;" edge="1" parent="zHCLdKrDDlEa_yOVtI9r-30">
          <mxGeometry width="50" height="50" relative="1" as="geometry">
            <mxPoint x="100" y="120" as="sourcePoint" />
            <mxPoint x="100" as="targetPoint" />
          </mxGeometry>
        </mxCell>
        <mxCell id="zHCLdKrDDlEa_yOVtI9r-20" value="" style="endArrow=none;html=1;rounded=0;" edge="1" parent="zHCLdKrDDlEa_yOVtI9r-30">
          <mxGeometry width="50" height="50" relative="1" as="geometry">
            <mxPoint x="80" y="120" as="sourcePoint" />
            <mxPoint x="80" as="targetPoint" />
          </mxGeometry>
        </mxCell>
        <mxCell id="zHCLdKrDDlEa_yOVtI9r-21" value="" style="endArrow=none;html=1;rounded=0;" edge="1" parent="zHCLdKrDDlEa_yOVtI9r-30">
          <mxGeometry width="50" height="50" relative="1" as="geometry">
            <mxPoint x="60" y="120" as="sourcePoint" />
            <mxPoint x="60" as="targetPoint" />
          </mxGeometry>
        </mxCell>
        <mxCell id="zHCLdKrDDlEa_yOVtI9r-22" value="" style="endArrow=none;html=1;rounded=0;" edge="1" parent="zHCLdKrDDlEa_yOVtI9r-30">
          <mxGeometry width="50" height="50" relative="1" as="geometry">
            <mxPoint x="40" y="120" as="sourcePoint" />
            <mxPoint x="40" as="targetPoint" />
          </mxGeometry>
        </mxCell>
        <mxCell id="zHCLdKrDDlEa_yOVtI9r-23" value="" style="endArrow=none;html=1;rounded=0;" edge="1" parent="zHCLdKrDDlEa_yOVtI9r-30">
          <mxGeometry width="50" height="50" relative="1" as="geometry">
            <mxPoint x="20" y="120" as="sourcePoint" />
            <mxPoint x="20" as="targetPoint" />
          </mxGeometry>
        </mxCell>
        <mxCell id="zHCLdKrDDlEa_yOVtI9r-24" value="1" style="text;html=1;align=center;verticalAlign=middle;whiteSpace=wrap;rounded=0;" vertex="1" parent="zHCLdKrDDlEa_yOVtI9r-30">
          <mxGeometry width="20" height="20" as="geometry" />
        </mxCell>
        <mxCell id="zHCLdKrDDlEa_yOVtI9r-25" value="2" style="text;html=1;align=center;verticalAlign=middle;whiteSpace=wrap;rounded=0;" vertex="1" parent="zHCLdKrDDlEa_yOVtI9r-30">
          <mxGeometry y="20" width="20" height="20" as="geometry" />
        </mxCell>
        <mxCell id="zHCLdKrDDlEa_yOVtI9r-26" value="3" style="text;html=1;align=center;verticalAlign=middle;whiteSpace=wrap;rounded=0;" vertex="1" parent="zHCLdKrDDlEa_yOVtI9r-30">
          <mxGeometry y="40" width="20" height="20" as="geometry" />
        </mxCell>
        <mxCell id="zHCLdKrDDlEa_yOVtI9r-27" value="4" style="text;html=1;align=center;verticalAlign=middle;whiteSpace=wrap;rounded=0;" vertex="1" parent="zHCLdKrDDlEa_yOVtI9r-30">
          <mxGeometry y="60" width="20" height="20" as="geometry" />
        </mxCell>
        <mxCell id="zHCLdKrDDlEa_yOVtI9r-28" value="5" style="text;html=1;align=center;verticalAlign=middle;whiteSpace=wrap;rounded=0;" vertex="1" parent="zHCLdKrDDlEa_yOVtI9r-30">
          <mxGeometry y="80" width="20" height="20" as="geometry" />
        </mxCell>
        <mxCell id="zHCLdKrDDlEa_yOVtI9r-29" value="6" style="text;html=1;align=center;verticalAlign=middle;whiteSpace=wrap;rounded=0;" vertex="1" parent="zHCLdKrDDlEa_yOVtI9r-30">
          <mxGeometry y="100" width="20" height="20" as="geometry" />
        </mxCell>
        <mxCell id="zHCLdKrDDlEa_yOVtI9r-31" value="" style="group" vertex="1" connectable="0" parent="1">
          <mxGeometry x="120" y="300" width="240" height="120" as="geometry" />
        </mxCell>
        <mxCell id="zHCLdKrDDlEa_yOVtI9r-32" value="" style="endArrow=none;html=1;rounded=0;" edge="1" parent="zHCLdKrDDlEa_yOVtI9r-31">
          <mxGeometry width="50" height="50" relative="1" as="geometry">
            <mxPoint as="sourcePoint" />
            <mxPoint x="240" as="targetPoint" />
          </mxGeometry>
        </mxCell>
        <mxCell id="zHCLdKrDDlEa_yOVtI9r-33" value="" style="endArrow=none;html=1;rounded=0;" edge="1" parent="zHCLdKrDDlEa_yOVtI9r-31">
          <mxGeometry width="50" height="50" relative="1" as="geometry">
            <mxPoint y="20" as="sourcePoint" />
            <mxPoint x="240" y="20" as="targetPoint" />
          </mxGeometry>
        </mxCell>
        <mxCell id="zHCLdKrDDlEa_yOVtI9r-34" value="" style="endArrow=none;html=1;rounded=0;" edge="1" parent="zHCLdKrDDlEa_yOVtI9r-31">
          <mxGeometry width="50" height="50" relative="1" as="geometry">
            <mxPoint y="40" as="sourcePoint" />
            <mxPoint x="240" y="40" as="targetPoint" />
          </mxGeometry>
        </mxCell>
        <mxCell id="zHCLdKrDDlEa_yOVtI9r-35" value="" style="endArrow=none;html=1;rounded=0;" edge="1" parent="zHCLdKrDDlEa_yOVtI9r-31">
          <mxGeometry width="50" height="50" relative="1" as="geometry">
            <mxPoint y="80" as="sourcePoint" />
            <mxPoint x="240" y="80" as="targetPoint" />
          </mxGeometry>
        </mxCell>
        <mxCell id="zHCLdKrDDlEa_yOVtI9r-36" value="" style="endArrow=none;html=1;rounded=0;" edge="1" parent="zHCLdKrDDlEa_yOVtI9r-31">
          <mxGeometry width="50" height="50" relative="1" as="geometry">
            <mxPoint y="120" as="sourcePoint" />
            <mxPoint x="240" y="120" as="targetPoint" />
          </mxGeometry>
        </mxCell>
        <mxCell id="zHCLdKrDDlEa_yOVtI9r-37" value="" style="endArrow=none;html=1;rounded=0;" edge="1" parent="zHCLdKrDDlEa_yOVtI9r-31">
          <mxGeometry width="50" height="50" relative="1" as="geometry">
            <mxPoint y="100" as="sourcePoint" />
            <mxPoint x="240" y="100" as="targetPoint" />
          </mxGeometry>
        </mxCell>
        <mxCell id="zHCLdKrDDlEa_yOVtI9r-38" value="" style="endArrow=none;html=1;rounded=0;" edge="1" parent="zHCLdKrDDlEa_yOVtI9r-31">
          <mxGeometry width="50" height="50" relative="1" as="geometry">
            <mxPoint y="60" as="sourcePoint" />
            <mxPoint x="240" y="60" as="targetPoint" />
          </mxGeometry>
        </mxCell>
        <mxCell id="zHCLdKrDDlEa_yOVtI9r-39" value="" style="endArrow=none;html=1;rounded=0;" edge="1" parent="zHCLdKrDDlEa_yOVtI9r-31">
          <mxGeometry width="50" height="50" relative="1" as="geometry">
            <mxPoint y="120" as="sourcePoint" />
            <mxPoint as="targetPoint" />
          </mxGeometry>
        </mxCell>
        <mxCell id="zHCLdKrDDlEa_yOVtI9r-40" value="" style="endArrow=none;html=1;rounded=0;" edge="1" parent="zHCLdKrDDlEa_yOVtI9r-31">
          <mxGeometry width="50" height="50" relative="1" as="geometry">
            <mxPoint x="140" y="120" as="sourcePoint" />
            <mxPoint x="140" as="targetPoint" />
          </mxGeometry>
        </mxCell>
        <mxCell id="zHCLdKrDDlEa_yOVtI9r-41" value="" style="endArrow=none;html=1;rounded=0;" edge="1" parent="zHCLdKrDDlEa_yOVtI9r-31">
          <mxGeometry width="50" height="50" relative="1" as="geometry">
            <mxPoint x="160" y="120" as="sourcePoint" />
            <mxPoint x="160" as="targetPoint" />
          </mxGeometry>
        </mxCell>
        <mxCell id="zHCLdKrDDlEa_yOVtI9r-42" value="" style="endArrow=none;html=1;rounded=0;" edge="1" parent="zHCLdKrDDlEa_yOVtI9r-31">
          <mxGeometry width="50" height="50" relative="1" as="geometry">
            <mxPoint x="180" y="120" as="sourcePoint" />
            <mxPoint x="180" as="targetPoint" />
          </mxGeometry>
        </mxCell>
        <mxCell id="zHCLdKrDDlEa_yOVtI9r-43" value="" style="endArrow=none;html=1;rounded=0;" edge="1" parent="zHCLdKrDDlEa_yOVtI9r-31">
          <mxGeometry width="50" height="50" relative="1" as="geometry">
            <mxPoint x="200" y="120" as="sourcePoint" />
            <mxPoint x="200" as="targetPoint" />
          </mxGeometry>
        </mxCell>
        <mxCell id="zHCLdKrDDlEa_yOVtI9r-44" value="" style="endArrow=none;html=1;rounded=0;" edge="1" parent="zHCLdKrDDlEa_yOVtI9r-31">
          <mxGeometry width="50" height="50" relative="1" as="geometry">
            <mxPoint x="220" y="120" as="sourcePoint" />
            <mxPoint x="220" as="targetPoint" />
          </mxGeometry>
        </mxCell>
        <mxCell id="zHCLdKrDDlEa_yOVtI9r-45" value="" style="endArrow=none;html=1;rounded=0;" edge="1" parent="zHCLdKrDDlEa_yOVtI9r-31">
          <mxGeometry width="50" height="50" relative="1" as="geometry">
            <mxPoint x="240" y="120" as="sourcePoint" />
            <mxPoint x="240" as="targetPoint" />
          </mxGeometry>
        </mxCell>
        <mxCell id="zHCLdKrDDlEa_yOVtI9r-46" value="" style="endArrow=none;html=1;rounded=0;" edge="1" parent="zHCLdKrDDlEa_yOVtI9r-31">
          <mxGeometry width="50" height="50" relative="1" as="geometry">
            <mxPoint x="120" y="120" as="sourcePoint" />
            <mxPoint x="120" as="targetPoint" />
          </mxGeometry>
        </mxCell>
        <mxCell id="zHCLdKrDDlEa_yOVtI9r-47" value="" style="endArrow=none;html=1;rounded=0;" edge="1" parent="zHCLdKrDDlEa_yOVtI9r-31">
          <mxGeometry width="50" height="50" relative="1" as="geometry">
            <mxPoint x="100" y="120" as="sourcePoint" />
            <mxPoint x="100" as="targetPoint" />
          </mxGeometry>
        </mxCell>
        <mxCell id="zHCLdKrDDlEa_yOVtI9r-48" value="" style="endArrow=none;html=1;rounded=0;" edge="1" parent="zHCLdKrDDlEa_yOVtI9r-31">
          <mxGeometry width="50" height="50" relative="1" as="geometry">
            <mxPoint x="80" y="120" as="sourcePoint" />
            <mxPoint x="80" as="targetPoint" />
          </mxGeometry>
        </mxCell>
        <mxCell id="zHCLdKrDDlEa_yOVtI9r-49" value="" style="endArrow=none;html=1;rounded=0;" edge="1" parent="zHCLdKrDDlEa_yOVtI9r-31">
          <mxGeometry width="50" height="50" relative="1" as="geometry">
            <mxPoint x="60" y="120" as="sourcePoint" />
            <mxPoint x="60" as="targetPoint" />
          </mxGeometry>
        </mxCell>
        <mxCell id="zHCLdKrDDlEa_yOVtI9r-50" value="" style="endArrow=none;html=1;rounded=0;" edge="1" parent="zHCLdKrDDlEa_yOVtI9r-31">
          <mxGeometry width="50" height="50" relative="1" as="geometry">
            <mxPoint x="40" y="120" as="sourcePoint" />
            <mxPoint x="40" as="targetPoint" />
          </mxGeometry>
        </mxCell>
        <mxCell id="zHCLdKrDDlEa_yOVtI9r-51" value="" style="endArrow=none;html=1;rounded=0;" edge="1" parent="zHCLdKrDDlEa_yOVtI9r-31">
          <mxGeometry width="50" height="50" relative="1" as="geometry">
            <mxPoint x="20" y="120" as="sourcePoint" />
            <mxPoint x="20" as="targetPoint" />
          </mxGeometry>
        </mxCell>
        <mxCell id="zHCLdKrDDlEa_yOVtI9r-52" value="1" style="text;html=1;align=center;verticalAlign=middle;whiteSpace=wrap;rounded=0;" vertex="1" parent="zHCLdKrDDlEa_yOVtI9r-31">
          <mxGeometry width="20" height="20" as="geometry" />
        </mxCell>
        <mxCell id="zHCLdKrDDlEa_yOVtI9r-53" value="2" style="text;html=1;align=center;verticalAlign=middle;whiteSpace=wrap;rounded=0;" vertex="1" parent="zHCLdKrDDlEa_yOVtI9r-31">
          <mxGeometry y="20" width="20" height="20" as="geometry" />
        </mxCell>
        <mxCell id="zHCLdKrDDlEa_yOVtI9r-54" value="3" style="text;html=1;align=center;verticalAlign=middle;whiteSpace=wrap;rounded=0;" vertex="1" parent="zHCLdKrDDlEa_yOVtI9r-31">
          <mxGeometry y="40" width="20" height="20" as="geometry" />
        </mxCell>
        <mxCell id="zHCLdKrDDlEa_yOVtI9r-55" value="4" style="text;html=1;align=center;verticalAlign=middle;whiteSpace=wrap;rounded=0;" vertex="1" parent="zHCLdKrDDlEa_yOVtI9r-31">
          <mxGeometry y="60" width="20" height="20" as="geometry" />
        </mxCell>
        <mxCell id="zHCLdKrDDlEa_yOVtI9r-56" value="5" style="text;html=1;align=center;verticalAlign=middle;whiteSpace=wrap;rounded=0;" vertex="1" parent="zHCLdKrDDlEa_yOVtI9r-31">
          <mxGeometry y="80" width="20" height="20" as="geometry" />
        </mxCell>
        <mxCell id="zHCLdKrDDlEa_yOVtI9r-57" value="6" style="text;html=1;align=center;verticalAlign=middle;whiteSpace=wrap;rounded=0;" vertex="1" parent="zHCLdKrDDlEa_yOVtI9r-31">
          <mxGeometry y="100" width="20" height="20" as="geometry" />
        </mxCell>
        <mxCell id="zHCLdKrDDlEa_yOVtI9r-58" value="" style="group" vertex="1" connectable="0" parent="1">
          <mxGeometry x="120" y="440" width="240" height="120" as="geometry" />
        </mxCell>
        <mxCell id="zHCLdKrDDlEa_yOVtI9r-59" value="" style="endArrow=none;html=1;rounded=0;" edge="1" parent="zHCLdKrDDlEa_yOVtI9r-58">
          <mxGeometry width="50" height="50" relative="1" as="geometry">
            <mxPoint as="sourcePoint" />
            <mxPoint x="240" as="targetPoint" />
          </mxGeometry>
        </mxCell>
        <mxCell id="zHCLdKrDDlEa_yOVtI9r-60" value="" style="endArrow=none;html=1;rounded=0;" edge="1" parent="zHCLdKrDDlEa_yOVtI9r-58">
          <mxGeometry width="50" height="50" relative="1" as="geometry">
            <mxPoint y="20" as="sourcePoint" />
            <mxPoint x="240" y="20" as="targetPoint" />
          </mxGeometry>
        </mxCell>
        <mxCell id="zHCLdKrDDlEa_yOVtI9r-61" value="" style="endArrow=none;html=1;rounded=0;" edge="1" parent="zHCLdKrDDlEa_yOVtI9r-58">
          <mxGeometry width="50" height="50" relative="1" as="geometry">
            <mxPoint y="40" as="sourcePoint" />
            <mxPoint x="240" y="40" as="targetPoint" />
          </mxGeometry>
        </mxCell>
        <mxCell id="zHCLdKrDDlEa_yOVtI9r-62" value="" style="endArrow=none;html=1;rounded=0;" edge="1" parent="zHCLdKrDDlEa_yOVtI9r-58">
          <mxGeometry width="50" height="50" relative="1" as="geometry">
            <mxPoint y="80" as="sourcePoint" />
            <mxPoint x="240" y="80" as="targetPoint" />
          </mxGeometry>
        </mxCell>
        <mxCell id="zHCLdKrDDlEa_yOVtI9r-63" value="" style="endArrow=none;html=1;rounded=0;" edge="1" parent="zHCLdKrDDlEa_yOVtI9r-58">
          <mxGeometry width="50" height="50" relative="1" as="geometry">
            <mxPoint y="120" as="sourcePoint" />
            <mxPoint x="240" y="120" as="targetPoint" />
          </mxGeometry>
        </mxCell>
        <mxCell id="zHCLdKrDDlEa_yOVtI9r-64" value="" style="endArrow=none;html=1;rounded=0;" edge="1" parent="zHCLdKrDDlEa_yOVtI9r-58">
          <mxGeometry width="50" height="50" relative="1" as="geometry">
            <mxPoint y="100" as="sourcePoint" />
            <mxPoint x="240" y="100" as="targetPoint" />
          </mxGeometry>
        </mxCell>
        <mxCell id="zHCLdKrDDlEa_yOVtI9r-65" value="" style="endArrow=none;html=1;rounded=0;" edge="1" parent="zHCLdKrDDlEa_yOVtI9r-58">
          <mxGeometry width="50" height="50" relative="1" as="geometry">
            <mxPoint y="60" as="sourcePoint" />
            <mxPoint x="240" y="60" as="targetPoint" />
          </mxGeometry>
        </mxCell>
        <mxCell id="zHCLdKrDDlEa_yOVtI9r-66" value="" style="endArrow=none;html=1;rounded=0;" edge="1" parent="zHCLdKrDDlEa_yOVtI9r-58">
          <mxGeometry width="50" height="50" relative="1" as="geometry">
            <mxPoint y="120" as="sourcePoint" />
            <mxPoint as="targetPoint" />
          </mxGeometry>
        </mxCell>
        <mxCell id="zHCLdKrDDlEa_yOVtI9r-67" value="" style="endArrow=none;html=1;rounded=0;" edge="1" parent="zHCLdKrDDlEa_yOVtI9r-58">
          <mxGeometry width="50" height="50" relative="1" as="geometry">
            <mxPoint x="140" y="120" as="sourcePoint" />
            <mxPoint x="140" as="targetPoint" />
          </mxGeometry>
        </mxCell>
        <mxCell id="zHCLdKrDDlEa_yOVtI9r-68" value="" style="endArrow=none;html=1;rounded=0;" edge="1" parent="zHCLdKrDDlEa_yOVtI9r-58">
          <mxGeometry width="50" height="50" relative="1" as="geometry">
            <mxPoint x="160" y="120" as="sourcePoint" />
            <mxPoint x="160" as="targetPoint" />
          </mxGeometry>
        </mxCell>
        <mxCell id="zHCLdKrDDlEa_yOVtI9r-69" value="" style="endArrow=none;html=1;rounded=0;" edge="1" parent="zHCLdKrDDlEa_yOVtI9r-58">
          <mxGeometry width="50" height="50" relative="1" as="geometry">
            <mxPoint x="180" y="120" as="sourcePoint" />
            <mxPoint x="180" as="targetPoint" />
          </mxGeometry>
        </mxCell>
        <mxCell id="zHCLdKrDDlEa_yOVtI9r-70" value="" style="endArrow=none;html=1;rounded=0;" edge="1" parent="zHCLdKrDDlEa_yOVtI9r-58">
          <mxGeometry width="50" height="50" relative="1" as="geometry">
            <mxPoint x="200" y="120" as="sourcePoint" />
            <mxPoint x="200" as="targetPoint" />
          </mxGeometry>
        </mxCell>
        <mxCell id="zHCLdKrDDlEa_yOVtI9r-71" value="" style="endArrow=none;html=1;rounded=0;" edge="1" parent="zHCLdKrDDlEa_yOVtI9r-58">
          <mxGeometry width="50" height="50" relative="1" as="geometry">
            <mxPoint x="220" y="120" as="sourcePoint" />
            <mxPoint x="220" as="targetPoint" />
          </mxGeometry>
        </mxCell>
        <mxCell id="zHCLdKrDDlEa_yOVtI9r-72" value="" style="endArrow=none;html=1;rounded=0;" edge="1" parent="zHCLdKrDDlEa_yOVtI9r-58">
          <mxGeometry width="50" height="50" relative="1" as="geometry">
            <mxPoint x="240" y="120" as="sourcePoint" />
            <mxPoint x="240" as="targetPoint" />
          </mxGeometry>
        </mxCell>
        <mxCell id="zHCLdKrDDlEa_yOVtI9r-73" value="" style="endArrow=none;html=1;rounded=0;" edge="1" parent="zHCLdKrDDlEa_yOVtI9r-58">
          <mxGeometry width="50" height="50" relative="1" as="geometry">
            <mxPoint x="120" y="120" as="sourcePoint" />
            <mxPoint x="120" as="targetPoint" />
          </mxGeometry>
        </mxCell>
        <mxCell id="zHCLdKrDDlEa_yOVtI9r-74" value="" style="endArrow=none;html=1;rounded=0;" edge="1" parent="zHCLdKrDDlEa_yOVtI9r-58">
          <mxGeometry width="50" height="50" relative="1" as="geometry">
            <mxPoint x="100" y="120" as="sourcePoint" />
            <mxPoint x="100" as="targetPoint" />
          </mxGeometry>
        </mxCell>
        <mxCell id="zHCLdKrDDlEa_yOVtI9r-75" value="" style="endArrow=none;html=1;rounded=0;" edge="1" parent="zHCLdKrDDlEa_yOVtI9r-58">
          <mxGeometry width="50" height="50" relative="1" as="geometry">
            <mxPoint x="80" y="120" as="sourcePoint" />
            <mxPoint x="80" as="targetPoint" />
          </mxGeometry>
        </mxCell>
        <mxCell id="zHCLdKrDDlEa_yOVtI9r-76" value="" style="endArrow=none;html=1;rounded=0;" edge="1" parent="zHCLdKrDDlEa_yOVtI9r-58">
          <mxGeometry width="50" height="50" relative="1" as="geometry">
            <mxPoint x="60" y="120" as="sourcePoint" />
            <mxPoint x="60" as="targetPoint" />
          </mxGeometry>
        </mxCell>
        <mxCell id="zHCLdKrDDlEa_yOVtI9r-77" value="" style="endArrow=none;html=1;rounded=0;" edge="1" parent="zHCLdKrDDlEa_yOVtI9r-58">
          <mxGeometry width="50" height="50" relative="1" as="geometry">
            <mxPoint x="40" y="120" as="sourcePoint" />
            <mxPoint x="40" as="targetPoint" />
          </mxGeometry>
        </mxCell>
        <mxCell id="zHCLdKrDDlEa_yOVtI9r-78" value="" style="endArrow=none;html=1;rounded=0;" edge="1" parent="zHCLdKrDDlEa_yOVtI9r-58">
          <mxGeometry width="50" height="50" relative="1" as="geometry">
            <mxPoint x="20" y="120" as="sourcePoint" />
            <mxPoint x="20" as="targetPoint" />
          </mxGeometry>
        </mxCell>
        <mxCell id="zHCLdKrDDlEa_yOVtI9r-79" value="1" style="text;html=1;align=center;verticalAlign=middle;whiteSpace=wrap;rounded=0;" vertex="1" parent="zHCLdKrDDlEa_yOVtI9r-58">
          <mxGeometry width="20" height="20" as="geometry" />
        </mxCell>
        <mxCell id="zHCLdKrDDlEa_yOVtI9r-80" value="2" style="text;html=1;align=center;verticalAlign=middle;whiteSpace=wrap;rounded=0;" vertex="1" parent="zHCLdKrDDlEa_yOVtI9r-58">
          <mxGeometry y="20" width="20" height="20" as="geometry" />
        </mxCell>
        <mxCell id="zHCLdKrDDlEa_yOVtI9r-81" value="3" style="text;html=1;align=center;verticalAlign=middle;whiteSpace=wrap;rounded=0;" vertex="1" parent="zHCLdKrDDlEa_yOVtI9r-58">
          <mxGeometry y="40" width="20" height="20" as="geometry" />
        </mxCell>
        <mxCell id="zHCLdKrDDlEa_yOVtI9r-82" value="4" style="text;html=1;align=center;verticalAlign=middle;whiteSpace=wrap;rounded=0;" vertex="1" parent="zHCLdKrDDlEa_yOVtI9r-58">
          <mxGeometry y="60" width="20" height="20" as="geometry" />
        </mxCell>
        <mxCell id="zHCLdKrDDlEa_yOVtI9r-83" value="5" style="text;html=1;align=center;verticalAlign=middle;whiteSpace=wrap;rounded=0;" vertex="1" parent="zHCLdKrDDlEa_yOVtI9r-58">
          <mxGeometry y="80" width="20" height="20" as="geometry" />
        </mxCell>
        <mxCell id="zHCLdKrDDlEa_yOVtI9r-84" value="6" style="text;html=1;align=center;verticalAlign=middle;whiteSpace=wrap;rounded=0;" vertex="1" parent="zHCLdKrDDlEa_yOVtI9r-58">
          <mxGeometry y="100" width="20" height="20" as="geometry" />
        </mxCell>
        <mxCell id="zHCLdKrDDlEa_yOVtI9r-85" value="" style="endArrow=none;dashed=1;html=1;strokeWidth=2;rounded=0;strokeColor=#3333FF;" edge="1" parent="1">
          <mxGeometry width="50" height="50" relative="1" as="geometry">
            <mxPoint x="100" y="150" as="sourcePoint" />
            <mxPoint x="380" y="150" as="targetPoint" />
          </mxGeometry>
        </mxCell>
        <mxCell id="zHCLdKrDDlEa_yOVtI9r-88" value="" style="endArrow=none;dashed=1;html=1;strokeWidth=2;rounded=0;strokeColor=#3333FF;" edge="1" parent="1">
          <mxGeometry width="50" height="50" relative="1" as="geometry">
            <mxPoint x="100" y="570" as="sourcePoint" />
            <mxPoint x="380" y="570" as="targetPoint" />
          </mxGeometry>
        </mxCell>
        <mxCell id="zHCLdKrDDlEa_yOVtI9r-89" value="" style="endArrow=none;dashed=1;html=1;strokeWidth=2;rounded=0;strokeColor=#3333FF;" edge="1" parent="1">
          <mxGeometry width="50" height="50" relative="1" as="geometry">
            <mxPoint x="100" y="430" as="sourcePoint" />
            <mxPoint x="380" y="430" as="targetPoint" />
          </mxGeometry>
        </mxCell>
        <mxCell id="zHCLdKrDDlEa_yOVtI9r-90" value="" style="endArrow=none;dashed=1;html=1;strokeWidth=2;rounded=0;strokeColor=#3333FF;" edge="1" parent="1">
          <mxGeometry width="50" height="50" relative="1" as="geometry">
            <mxPoint x="100" y="290" as="sourcePoint" />
            <mxPoint x="380" y="290" as="targetPoint" />
          </mxGeometry>
        </mxCell>
        <mxCell id="zHCLdKrDDlEa_yOVtI9r-92" value="index" style="text;html=1;align=center;verticalAlign=middle;whiteSpace=wrap;rounded=0;" vertex="1" parent="1">
          <mxGeometry x="100" y="114" width="60" height="30" as="geometry" />
        </mxCell>
        <mxCell id="zHCLdKrDDlEa_yOVtI9r-93" value="divisions" style="text;html=1;align=center;verticalAlign=middle;whiteSpace=wrap;rounded=0;" vertex="1" parent="1">
          <mxGeometry x="430" y="345" width="60" height="30" as="geometry" />
        </mxCell>
        <mxCell id="zHCLdKrDDlEa_yOVtI9r-94" value="" style="endArrow=classicThin;html=1;rounded=0;exitX=0.5;exitY=0;exitDx=0;exitDy=0;endFill=1;strokeColor=#3333FF;" edge="1" parent="1" source="zHCLdKrDDlEa_yOVtI9r-93">
          <mxGeometry width="50" height="50" relative="1" as="geometry">
            <mxPoint x="270" y="340" as="sourcePoint" />
            <mxPoint x="390" y="150" as="targetPoint" />
          </mxGeometry>
        </mxCell>
        <mxCell id="zHCLdKrDDlEa_yOVtI9r-95" value="" style="endArrow=classicThin;html=1;rounded=0;exitX=0.25;exitY=0;exitDx=0;exitDy=0;endFill=1;strokeColor=#3333FF;" edge="1" parent="1" source="zHCLdKrDDlEa_yOVtI9r-93">
          <mxGeometry width="50" height="50" relative="1" as="geometry">
            <mxPoint x="470" y="355" as="sourcePoint" />
            <mxPoint x="390" y="290" as="targetPoint" />
          </mxGeometry>
        </mxCell>
        <mxCell id="zHCLdKrDDlEa_yOVtI9r-96" value="" style="endArrow=classicThin;html=1;rounded=0;endFill=1;strokeColor=#3333FF;" edge="1" parent="1" source="zHCLdKrDDlEa_yOVtI9r-93">
          <mxGeometry width="50" height="50" relative="1" as="geometry">
            <mxPoint x="455" y="355" as="sourcePoint" />
            <mxPoint x="390" y="430" as="targetPoint" />
          </mxGeometry>
        </mxCell>
        <mxCell id="zHCLdKrDDlEa_yOVtI9r-97" value="" style="endArrow=classicThin;html=1;rounded=0;exitX=0.5;exitY=1;exitDx=0;exitDy=0;endFill=1;strokeColor=#3333FF;" edge="1" parent="1" source="zHCLdKrDDlEa_yOVtI9r-93">
          <mxGeometry width="50" height="50" relative="1" as="geometry">
            <mxPoint x="465" y="365" as="sourcePoint" />
            <mxPoint x="390" y="571.025641025641" as="targetPoint" />
          </mxGeometry>
        </mxCell>
      </root>
    </mxGraphModel>
  </diagram>
</mxfile>
